<svg xmlns="http://www.w3.org/2000/svg" fill="none" viewBox="-1.125 -1.125 24 24" stroke="currentColor"
    aria-hidden="true" id="List-Bullet--Streamline-Heroicons-Outline" height="24" width="24">
    <desc>List Bullet Streamline Icon: https://streamlinehq.com</desc>
    <path stroke-linecap="round" stroke-linejoin="round"
        d="M7.4765625 6.1171875h10.875M7.4765625 10.875h10.875m-10.875 4.7578125h10.875M3.3984375 6.1171875h0.00634375v0.00725H3.3984375V6.1171875Zm0.33984375 0a0.33984375 0.33984375 0 1 1 -0.6796875 0 0.33984375 0.33984375 0 0 1 0.6796875 0ZM3.3984375 10.875h0.00634375v0.00725H3.3984375V10.875Zm0.33984375 0a0.33984375 0.33984375 0 1 1 -0.6796875 0 0.33984375 0.33984375 0 0 1 0.6796875 0Zm-0.33984375 4.7578125h0.00634375v0.00725H3.3984375v-0.00725Zm0.33984375 0a0.33984375 0.33984375 0 1 1 -0.6796875 0 0.33984375 0.33984375 0 0 1 0.6796875 0Z"
        stroke-width="2.25"></path>
</svg>