<svg xmlns="http://www.w3.org/2000/svg" fill="none" viewBox="0 0 36 36" id="Map-Pin-Duotone--Streamline-Phosphor"
    height="36" width="36">
    <desc>Map Pin Duotone Streamline Icon: https://streamlinehq.com</desc>
    <g id="map-pin-duotone">
        <path id="Vector" fill="currentColor"
            d="M18 3.375c-2.9836406249999996 0 -5.845162500000001 1.1852578125 -7.9549453125 3.2950546875C7.9352578125 8.7798375 6.75 11.6413171875 6.75 14.625c0 10.125 11.25 18 11.25 18s11.25 -7.875 11.25 -18c0 -2.9836828125 -1.185328125 -5.845162500000001 -3.2949843750000003 -7.9549453125C23.84521875 4.5602578125 20.983640625000003 3.375 18 3.375Zm0 15.75c-0.890015625 0 -1.7600625 -0.263953125 -2.5000312499999997 -0.758390625 -0.740109375 -0.4944375 -1.3168125000000002 -1.1972812499999999 -1.6574203125 -2.019515625 -0.3406078125 -0.8222343750000001 -0.42972187500000003 -1.7270156250000002 -0.256078125 -2.6000015625 0.1736296875 -0.872915625 0.6021703125 -1.67473125 1.2316078125 -2.3040703125 0.629296875 -0.6293390624999999 1.4311406249999998 -1.057921875 2.3040000000000003 -1.2315515625 0.873 -0.17364374999999999 1.7777812499999999 -0.08452968749999999 2.600015625 0.256078125 0.8222343750000001 0.34059375000000003 1.525078125 0.9173671875 2.019515625 1.6573921875C22.236046875 12.8649515625 22.5 13.734984375000002 22.5 14.625c0 1.193484375 -0.474046875 2.3380312500000002 -1.318078125 3.181921875C20.33803125 18.650953124999997 19.193484375 19.125 18 19.125Z"
            stroke-width="0.1406"></path>
        <path id="Vector_2" fill="#2a228d"
            d="M18 9c-1.112484375 0 -2.200078125 0.32990625 -3.125109375 0.94798125 -0.9250031249999999 0.6180890625 -1.6459734375000001 1.4965875 -2.071715625 2.5244296875 -0.4257421875 1.027828125 -0.53713125 2.1587765625 -0.32009062499999996 3.2500265625 0.21704062500000001 1.091109375 0.752765625 2.09334375 1.5394359375000002 2.88 0.7866984374999999 0.7866562500000001 1.7889328125 1.3224375 2.8800421875 1.539421875 1.09125 0.217125 2.22215625 0.10575 3.249984375 -0.32006249999999997 1.027828125 -0.42567187500000003 1.906453125 -1.14665625 2.5245 -2.0716875C23.29509375 16.825078125 23.625 15.737484375000001 23.625 14.625c0 -1.4918484375 -0.59259375 -2.9225812500000004 -1.6475624999999998 -3.9774796875000002C20.922609374999997 9.592635937499999 19.491890625 9 18 9Zm0 9c-0.667546875 0 -1.320046875 -0.19799999999999998 -1.87509375 -0.568828125 -0.55490625 -0.370828125 -0.9876093749999999 -0.8978906249999999 -1.242984375 -1.5146718750000001 -0.25551562499999997 -0.6166406249999999 -0.3223125 -1.295296875 -0.19209375 -1.9499343749999998 0.13021875 -0.6546796875 0.4516875 -1.2560484375 0.9236249999999999 -1.7280562499999998 0.472078125 -0.47199375 1.073390625 -0.793434375 1.728140625 -0.923653125 0.654609375 -0.13023281250000002 1.333265625 -0.06339375 1.94990625 0.1920515625 0.6167812500000001 0.2554453125 1.14384375 0.688021875 1.5146718750000001 1.243040625C21.177000000000003 13.3049671875 21.375 13.95748125 21.375 14.625c0 0.8950781250000001 -0.355640625 1.75359375 -0.9884531249999999 2.386546875C19.75359375 17.644359375 18.895078125 18 18 18Zm0 -15.75c-3.2809218749999998 0.0037265625 -6.426379687500001 1.3087125 -8.746340625 3.628659375C6.9337124999999995 8.1986203125 5.6287265625 11.3440921875 5.625 14.625c0 4.4156249999999995 2.04046875 9.095625000000002 5.90625 13.53515625 1.737028125 2.00615625 3.692109375 3.812484375 5.82890625 5.3859375 0.189140625 0.13246875 0.4145625 0.203625 0.64546875 0.203625s0.45632812500000003 -0.07115625 0.64546875 -0.203625c2.132859375 -1.574015625 4.084171875 -3.380484375 5.81765625 -5.3859375 3.8601562499999997 -4.43953125 5.90625 -9.11953125 5.90625 -13.53515625 -0.0036562499999999998 -3.2809078124999997 -1.3086562499999999 -6.426379687500001 -3.6286875 -8.746340625C24.426421875000003 3.5587125 21.280921874999997 2.2537265625 18 2.25Zm0 28.96875c-2.32453125 -1.828125 -10.125 -8.54296875 -10.125 -16.59375 0 -2.68531875 1.0667390625 -5.260654687500001 2.9655421875 -7.1594578125C12.739345312500001 5.5667390625 15.314625 4.5 18 4.5c2.685375 0 5.260640625 1.0667390625 7.1594999999999995 2.9655421875C27.058218749999998 9.364345312500001 28.125 11.93968125 28.125 14.625c0 8.047968749999999 -7.80046875 14.765625 -10.125 16.59375Z"
            stroke-width="0.1406"></path>
    </g>
</svg>