<svg xmlns="http://www.w3.org/2000/svg" fill="none" viewBox="-1.5 -1.5 24 24" stroke="#000000" aria-hidden="true"
    id="Map--Streamline-Heroicons-Outline" height="24" width="24">
    <desc>Map Streamline Icon: https://streamlinehq.com</desc>
    <path stroke-linecap="round" stroke-linejoin="round"
        d="M7.875 5.90625V13.125m5.25 -5.25v7.21875m0.440125 3.06075 4.265625 -2.1323749999999997c0.333375 -0.16625 0.54425 -0.5075 0.54425 -0.88025V4.2175c0 -0.7314999999999999 -0.77 -1.2075 -1.4244999999999999 -0.88025l-3.3853750000000002 1.69225c-0.277375 0.139125 -0.60375 0.139125 -0.88025 0L8.315125 2.8455a0.984375 0.984375 0 0 0 -0.88025 0L3.16925 4.977875C2.835 5.145 2.625 5.48625 2.625 5.858125V16.7825c0 0.7314999999999999 0.77 1.2075 1.4244999999999999 0.88025l3.3853750000000002 -1.69225c0.277375 -0.139125 0.60375 -0.139125 0.88025 0l4.36975 2.184875c0.277375 0.13825 0.60375 0.13825 0.88025 0Z"
        stroke-width="2.25"></path>
</svg>