<svg xmlns="http://www.w3.org/2000/svg" fill="none" viewBox="0 0 16 16" id="Search--Streamline-Ionic-Filled" height="16"
    width="16">
    <desc>Search Streamline Icon: https://streamlinehq.com</desc>
    <path fill="currentColor"
        d="M15.5997 14.266066666666667 12.0451 10.711500000000001c0.8557666666666666 -1.1393 1.3177666666666665 -2.5259666666666662 1.3161666666666667 -3.9508333333333328C13.361266666666666 3.1210666666666667 10.400233333333333 0.15999999999999998 6.760666666666666 0.15999999999999998S0.16003333333333333 3.1210666666666667 0.16003333333333333 6.760666666666666c0 3.639533333333333 2.9610666666666665 6.600633333333333 6.600633333333333 6.600633333333333 1.4249 0.0015333333333333332 2.8115666666666663 -0.4604333333333333 3.9508666666666667 -1.3162333333333334L14.266066666666667 15.599666666666666c0.1799333333333333 0.16083333333333333 0.4146333333333333 0.24666666666666665 0.6558999999999999 0.23996666666666666 0.24126666666666666 -0.006766666666666666 0.47076666666666667 -0.10566666666666666 0.6414 -0.27626666666666666 0.17063333333333333 -0.17066666666666666 0.2695333333333333 -0.4001666666666666 0.27626666666666666 -0.6414333333333333 0.0067333333333333325 -0.24126666666666666 -0.0791 -0.4759 -0.23993333333333333 -0.6558666666666666ZM2.0458999999999996 6.760666666666666c0 -0.9324999999999999 0.27649999999999997 -1.8440666666666665 0.7946 -2.6193999999999997 0.5180666666666667 -0.7752999999999999 1.2544 -1.3796 2.1159 -1.7365 0.8614999999999999 -0.35683333333333334 1.8094666666666666 -0.4502 2.7240666666666664 -0.26826666666666665 0.9145333333333332 0.18189999999999998 1.754633333333333 0.6309 2.4140333333333333 1.2902999999999998 0.6593666666666667 0.6594 1.1084 1.4994666666666667 1.2902999999999998 2.414066666666667 0.18189999999999998 0.9145333333333332 0.08853333333333332 1.8625333333333334 -0.2683 2.7240333333333333 -0.35686666666666667 0.8614999999999999 -0.9611666666666667 1.5978333333333332 -1.7365 2.1159 -0.7752999999999999 0.5181 -1.6868333333333334 0.7945666666666666 -2.619333333333333 0.7945666666666666 -1.2499666666666664 -0.0014666666666666667 -2.4482999999999997 -0.4987 -3.3322000000000003 -1.3825666666666667 -0.8838333333333332 -0.8838666666666667 -1.3810666666666667 -2.0822 -1.3825666666666667 -3.332133333333333Z"
        stroke-width="0.3333"></path>
</svg>